<svg width="54" height="54" viewBox="0 0 54 54" fill="none" xmlns="http://www.w3.org/2000/svg">
<path d="M20.569 0.115221C13.2362 0.63268 8.76841 2.15982 5.53744 5.23933C2.28124 8.34408 0.665755 13.0012 0.123054 20.801C-0.0410181 23.1611 -0.0410181 30.557 0.123054 32.9171C0.665755 40.6663 2.19289 45.1089 5.41123 48.3273C8.6422 51.5582 13.1479 53.098 20.8845 53.6154C23.3204 53.7795 30.426 53.7795 32.8744 53.6154C40.6742 53.098 45.3818 51.4573 48.4992 48.2011C51.6418 44.907 53.1311 40.4644 53.6359 32.854C53.8 30.4181 53.8 23.2999 53.6359 20.8641C53.1311 13.2536 51.6418 8.81106 48.4992 5.51699C45.3944 2.26078 40.7373 0.645301 32.9375 0.1026C30.8172 -0.0362302 22.7019 -0.0362302 20.569 0.115221ZM30.7289 5.4034C37.7082 5.7063 41.3809 6.60239 43.9556 8.62174C45.6721 9.97219 47.0099 12.6226 47.6283 15.8788C48.6759 21.3437 48.6759 32.3744 47.6283 37.8392C47.0099 41.0955 45.6721 43.7459 43.9556 45.0963C41.3178 47.1661 37.6956 48.0244 30.2619 48.3273C25.1378 48.5418 19.7486 48.2894 16.2779 47.671C9.29849 46.4215 6.69857 43.3546 5.73938 35.1888C5.39861 32.3618 5.25978 27.2124 5.41123 23.4892C5.66365 17.1283 6.24422 14.0361 7.67038 11.2721C9.66449 7.44799 13.9051 5.78203 22.5883 5.41602C25.8698 5.26457 27.6494 5.26457 30.7289 5.4034Z" fill="white"/>
</svg>
